<svg xmlns="http://www.w3.org/2000/svg" viewBox="0 0 166.67 166.67"><defs><style>.cls-1{fill:#231f20;}</style></defs><title>bm</title><g id="Layer_2" data-name="Layer 2"><g id="Logo"><g id="Logo_Dark" data-name="Logo Dark"><path class="cls-1" d="M83.33,0a83.33,83.33,0,1,0,83.33,83.33A83.34,83.34,0,0,0,83.33,0ZM30.88,60.22,49.47,41.55A5.08,5.08,0,0,1,53,40H72.42A5.15,5.15,0,0,1,76,41.55l.88.93a5,5,0,0,1,0,7.1L72.13,54.3a5,5,0,0,0,0,7.08l1.77,1.77a5,5,0,0,1,0,7.08l-4.72,4.7a5,5,0,0,1-7.07,0l-1.77-1.77a5,5,0,0,0-7.07,0l-4.72,4.72a5,5,0,0,1-7.07,0L30.88,67.28A5,5,0,0,1,30.88,60.22ZM124,120.32,119.28,125a5,5,0,0,1-7.08,0L92.77,105.58a5,5,0,0,1,0-7.07l4.72-4.72a5,5,0,0,1,7.07,0L124,113.25A5,5,0,0,1,124,120.32Zm11.78-53-10.62,10.6a5,5,0,0,1-7.07,0l-4.72-4.72a5,5,0,0,0-7.07,0L54.47,125a5,5,0,0,1-7.08,0l-4.72-4.72a5,5,0,0,1,0-7.07L94.53,61.38a5,5,0,0,0,0-7.07L89.82,49.6a5,5,0,0,1,0-7.07l.88-1A5.15,5.15,0,0,1,94.25,40h19.42a5.08,5.08,0,0,1,3.53,1.55l18.58,18.63A5,5,0,0,1,135.78,67.28Z"/></g></g></g></svg>