<svg xmlns="http://www.w3.org/2000/svg" viewBox="0 0 534.25 510.2"><defs><style>.cls-1{fill:#13a0bf;}.cls-2{fill:#92d6e5;}.cls-3{fill:#fefeff;}</style></defs><title>cswn</title><g id="Layer_2" data-name="Layer 2"><g id="Layer_1-2" data-name="Layer 1"><path class="cls-1" d="M225.18,489.81c.25-4.14,1.63-8.22,3-12.17,6-11.95,9.14-26.38,13.52-39l13.8-39.82,27.59-79.63,9.38-27.08c1.56-4.51,3.08-9,4.69-13.54,2.2-6.13,4.09-2.4,8.33.63a143,143,0,0,0,45.14,21.56c2.34.64,4.84,1.32,6.45,3.14a12.09,12.09,0,0,1,2.1,4.24L401,431.54,446.29,300.9a20.15,20.15,0,0,1,3-6.28c1.87-2.3,4.63-3.64,7.25-5a142.2,142.2,0,0,0,38.55-29.21c5.5,6.39,3.09,16.11.38,24.09l-13.92,41.07c-17.79,52.5-35.6,105-55.63,156.69-2.38,6.14-4.86,12.38-9,17.47s-10.4,8.94-17,8.63c-6.15-.29-11.69-4.17-15.44-9.06s-6-10.75-8.14-16.51c-19.1-51-36.57-102.58-54-154.16L267.18,488.74c-1.76,5.12-3.6,10.37-7.17,14.45a20.82,20.82,0,0,1-21,6.26,19.66,19.66,0,0,1-13.84-16.76A20.41,20.41,0,0,1,225.18,489.81Z"/><path class="cls-2" d="M27.58,242.94c1.84,1.9,3.17,4.19,4.81,6.24,2.77,3.47,5.62,6.87,8.6,10.16s6.23,6.47,9.55,9.5c1.12,1,2.29,2,3.44,3a1.57,1.57,0,0,0,.18.94q24.27,70.27,48.58,140.52l3,8.58,7.77-23.16c6.26-18.67,12.7-37.29,18.77-56,3.62-10.94,14.21-17,26.53-14,7.64,1.83,12.25,7,15,14.26,9.42,25.16,17.72,50.7,26.24,76.17l2.35,7c.21-.56.33-.86.44-1.17,16.94-48.55,33.62-97.2,50.38-145.81a46.11,46.11,0,0,0,2.45-7.65l0,0c.25,0,.26-.14.29-.3,1.33-1.28,2.62-2.61,4-3.84a132,132,0,0,0,13.74-14.56,144.84,144.84,0,0,0,14-20.87,92.79,92.79,0,0,0,7.4-15.15c1.66-4.68,1.94-9,.18-13.65-.15-.39-1.54-1.53-1.37-1.95a5.2,5.2,0,0,1,1.22.82,25.13,25.13,0,0,1,1.66,3.41q.79,1.74,1.67,3.43a53.38,53.38,0,0,0,2.81,5.13,102.4,102.4,0,0,0,7.65,11.24,105,105,0,0,0,30.71,26.54,101,101,0,0,0,12.24,5.92q3.35,1.35,6.79,2.45A103.87,103.87,0,0,0,443.22,250c25-15.32,42.83-43,47.56-71.9,0,.11-4,0-4.42,0h-4.51l-9,0-18,0-18,0-18,0-18,0-18,0-18,0-18,0-18,0-18,0-18,0c-5.9,0-11.78.13-17.69.15H269a20.48,20.48,0,0,1-19.94-14.36c-1.6-5.2-1.52-10.76-1.2-16.19,2.45-42.65,23.61-88.83,57.61-114.76A143.22,143.22,0,0,1,429.32,9.12c41.66,11.27,77.45,41.21,94.58,81a20.62,20.62,0,0,1-14.56,28.74,20.41,20.41,0,0,1-22.74-11.2,119.25,119.25,0,0,0-11.37-20.44c-15.94-22-37.12-36.17-63.83-41.08-36.67-6.74-68.31,3.63-94.27,30.36-14.49,14.91-23.08,38.93-26.59,59.44-.2,1.14,0,1.52,1.28,1.51q44.26-.19,88.52-.31c14.47-.05,28.95-.17,43.42-.22,12.61,0,25.23,0,37.84-.06,16.94-.06,33.88-.17,50.82-.22,14.92,0,21.44,12.95,21.79,26.09.58,21.53-5.69,42.86-14.94,62.07a143.1,143.1,0,0,1-23.46,34.65c-.25.27-.57.49-.61.9-3.06,2.71-5.77,5.76-8.81,8.5a153.42,153.42,0,0,1-15.66,12.4,144.46,144.46,0,0,1-22.14,12.47c-.43.18-.86.34-1.29.53a142.62,142.62,0,0,1-59.94,12,147.79,147.79,0,0,1-29.85-3.57l-.94-.21a147.67,147.67,0,0,1-33.81-12.66,155.58,155.58,0,0,1-22.84-14.87c-1.26-1-1.24-1-1.78.56q-3.69,10.66-7.38,21.32-6.46,18.69-12.91,37.38-5.26,15.2-10.53,30.4l-13.11,37.9-10.37,30q-6.61,19.15-13.22,38.31-3.27,9.47-6.58,18.94c-1.31,4.45-3,8.68-6.42,12a20.93,20.93,0,0,1-24.28,3.38,23.23,23.23,0,0,1-11-12.45c-10.63-27.08-29.07-82.25-29.07-82.25l-2.94,8.71-3.23,9.58q-10.31,30.58-21,61c-2.68,7.62-6.89,13.84-15.15,15.85A20.62,20.62,0,0,1,86.5,492.8C60,419,35.15,344.53,9.58,270.37a20.64,20.64,0,0,1,16.19-27.25C26.37,243,27,243,27.58,242.94Z"/><path class="cls-2" d="M155.76,249.16c-26-.5-49.08-10.14-67.68-29.88a91.47,91.47,0,0,1-24.48-51.54A93.09,93.09,0,0,1,72,114.4a15.37,15.37,0,0,1,15.53-8.91,15,15,0,0,1,13.32,12.06,15.72,15.72,0,0,1-1.32,10.31,62.11,62.11,0,0,0-3.12,46.66c8.43,23.78,25,38.52,49.86,43C165.61,221,183,215.87,198.1,203.2c6.73-5.66,15.68-5.53,21.62.59a15.14,15.14,0,0,1-.19,21.26,82,82,0,0,1-19.64,13.65,93.6,93.6,0,0,1-35.55,10.13C161.83,249,159.33,248.94,155.76,249.16Z"/><path class="cls-1" d="M157.07,201.3c-23,0-42.1-15.67-46.44-37.81a45.72,45.72,0,0,1,3.78-29.08,10.08,10.08,0,0,1,10.63-5.78,9.85,9.85,0,0,1,8.45,7.47,11.17,11.17,0,0,1-.64,7.22c-4.49,10.12-3.33,19.6,3.6,28.23,8.69,10.82,25.56,12.48,36.33,3.62,2.17-1.79,4.42-3.23,7.34-3.28a10.2,10.2,0,0,1,7.22,17.77,45.28,45.28,0,0,1-19.15,10.18A42.44,42.44,0,0,1,157.07,201.3Z"/><path class="cls-2" d="M157.71,140.82a13.57,13.57,0,0,1,13.86,13.78,14,14,0,0,1-27.94.1C143.43,146.84,149.7,140.83,157.71,140.82Z"/><path class="cls-1" d="M27.58,242.94c0-.62-.46-1-.76-1.44A155.62,155.62,0,0,1,2.6,182.59,137.08,137.08,0,0,1,.24,162.53c0-.36.08-.75-.24-1V148.35a2.75,2.75,0,0,0,.22-1.63A126.31,126.31,0,0,1,1.74,131.2,154.06,154.06,0,0,1,17.11,83.84a151,151,0,0,1,38.7-48.16,159.91,159.91,0,0,1,28.9-19A151.75,151.75,0,0,1,116.65,4.77,158.69,158.69,0,0,1,156.84,0,148.9,148.9,0,0,1,192.36,4.7a154.08,154.08,0,0,1,26.87,9.56,20.65,20.65,0,0,1-4.74,39.12,21.51,21.51,0,0,1-13-1.79,108.25,108.25,0,0,0-36.31-9.7c-31-2.61-58.69,5.84-82.72,25.47-21,17.15-33.78,39.4-39.14,65.94a104.46,104.46,0,0,0-1.87,26.93c1.46,24.8,9.89,47,25.67,66.21,16.16,19.67,36.86,32.25,61.55,38.27a105.86,105.86,0,0,0,31.28,2.85,113.06,113.06,0,0,0,67.68-26.67,109.68,109.68,0,0,0,29.24-38.11c3.26-7,8.59-11.22,16.1-12.63a17.69,17.69,0,0,1,9.06.53,24.35,24.35,0,0,1,7.3,4.11,20.83,20.83,0,0,1,6.24,22.39A92.45,92.45,0,0,1,288,232.23a145.18,145.18,0,0,1-14.38,20.63,132,132,0,0,1-13.74,14.56c-1.39,1.22-2.67,2.55-4,3.84a.28.28,0,0,0-.29.3l0,0a2.2,2.2,0,0,0-1,.67c-3,2.54-6,5-9.22,7.23C187.9,320.37,107.75,317.86,54,271.85c-1.15-1-2.32-2-3.44-3-3.32-3-6.53-6.16-9.55-9.5s-5.83-6.69-8.6-10.16C30.75,247.13,29.42,244.84,27.58,242.94Z"/><path class="cls-3" d="M255.88,271.25c0,.16,0,.35-.29.3A.28.28,0,0,1,255.88,271.25Z"/></g></g></svg>