<svg xmlns="http://www.w3.org/2000/svg" viewBox="0 0 63.13 63.13"><defs><style>.cls-1{fill:#fff;}</style></defs><title>ios</title><g id="Layer_2" data-name="Layer 2"><g id="Layer_1-2" data-name="Layer 1"><circle cx="31.56" cy="31.56" r="31.56"/><path class="cls-1" d="M40.6,32.82l-.77-1-.16.1a6.37,6.37,0,0,0,.47.78,1.06,1.06,0,0,1,.17,1.15,3.88,3.88,0,0,0-.19.72c-.15.8-.11.85.73.95.1,0,.24,0,.28.08.23.42.45.85.65,1.28s.36,1,.61,1.4a1,1,0,0,0,1.12.46c.48-.08,1-.1,1.63-.17a21.9,21.9,0,0,1-1.19,2.61,39.37,39.37,0,0,1-3,4.31c-1.5,1.8-3.14,2.1-5.34,1.19A7.54,7.54,0,0,0,31.36,46a11.53,11.53,0,0,0-2.3.67c-2.48,1-3.93.74-5.7-1.24a20.64,20.64,0,0,1-5.18-11A13,13,0,0,1,19,27a8,8,0,0,1,7.57-4.91,7.9,7.9,0,0,1,3,.73,5,5,0,0,0,4.6-.07,8.38,8.38,0,0,1,5.92-.52,7.67,7.67,0,0,1,4.22,2.9c-1.67.56-3.17,1.37-3.82,3a4.72,4.72,0,0,0,.31,4.66Z"/><path class="cls-1" d="M31.59,21.6a5.43,5.43,0,0,1,.47-3.16A7.46,7.46,0,0,1,37.38,14c.83-.2.92-.1.89.75a7.23,7.23,0,0,1-5.52,6.76A10.14,10.14,0,0,1,31.59,21.6Z"/></g></g></svg>