<svg xmlns="http://www.w3.org/2000/svg" viewBox="0 0 64.91 64.91"><defs><style>.cls-1{fill:#fff;}.cls-2{fill:#fefeff;}.cls-3{fill:#6ea0d6;}.cls-4{fill:#4451a3;}</style></defs><title>sigapp</title><g id="Layer_2" data-name="Layer 2"><g id="Layer_1-2" data-name="Layer 1"><circle class="cls-1" cx="32.46" cy="32.46" r="32.46"/><path class="cls-2" d="M41.19,35.85a.07.07,0,0,1-.07-.07V29a.07.07,0,0,1,.07-.07h6.54A1.09,1.09,0,0,1,48.81,30v2.09a1.09,1.09,0,0,1-1.09,1.09H42.39a.12.12,0,0,0-.12.12v2.47a.07.07,0,0,1-.07.07Zm1.33-6.07a.31.31,0,0,0-.31.31v2a.31.31,0,0,0,.31.31H47a.87.87,0,0,0,.87-.87v-.85a.87.87,0,0,0-.87-.87Z"/><path class="cls-3" d="M47.73,29a1,1,0,0,1,1,1v2.09a1,1,0,0,1-1,1H42.39a.23.23,0,0,0-.23.23v2.42h-.92V29h6.49M42.52,32.5H47a1,1,0,0,0,1-1v-.85a1,1,0,0,0-1-1H42.52a.42.42,0,0,0-.42.42v2a.42.42,0,0,0,.42.42m5.21-3.68H41.19A.19.19,0,0,0,41,29v6.78a.19.19,0,0,0,.19.19h1a.19.19,0,0,0,.19-.19V33.31h5.33a1.2,1.2,0,0,0,1.2-1.2V30a1.2,1.2,0,0,0-1.2-1.2Zm-5.21,3.45a.19.19,0,0,1-.19-.19v-2a.19.19,0,0,1,.19-.19H47a.76.76,0,0,1,.76.76v.85a.76.76,0,0,1-.76.76Z"/><path class="cls-2" d="M50.64,35.85a.07.07,0,0,1-.07-.07V29a.07.07,0,0,1,.07-.07h6.54A1.09,1.09,0,0,1,58.26,30v2.09a1.09,1.09,0,0,1-1.09,1.09H51.84a.12.12,0,0,0-.12.12v2.47a.07.07,0,0,1-.07.07ZM52,29.79a.31.31,0,0,0-.31.31v2a.31.31,0,0,0,.31.31h4.51a.87.87,0,0,0,.87-.87v-.85a.87.87,0,0,0-.87-.87Z"/><path class="cls-3" d="M57.17,29a1,1,0,0,1,1,1v2.09a1,1,0,0,1-1,1H51.84a.23.23,0,0,0-.23.23v2.42h-.92V29h6.49M52,32.5h4.51a1,1,0,0,0,1-1v-.85a1,1,0,0,0-1-1H52a.42.42,0,0,0-.42.42v2a.42.42,0,0,0,.42.42m5.21-3.68H50.64a.19.19,0,0,0-.19.19v6.78a.19.19,0,0,0,.19.19h1a.19.19,0,0,0,.19-.19V33.31h5.33a1.2,1.2,0,0,0,1.2-1.2V30a1.2,1.2,0,0,0-1.2-1.2ZM52,32.26a.19.19,0,0,1-.19-.19v-2A.19.19,0,0,1,52,29.9h4.51a.76.76,0,0,1,.76.76v.85a.76.76,0,0,1-.76.76Z"/><path class="cls-4" d="M27.76,32.48H23.91c-.35,0-.6,0-.59.41s.13.44.47.43c1,0,2,0,3,0,.16,0,.4-.09.45.18a1.62,1.62,0,0,1-.29,1.31,1.54,1.54,0,0,1-1.25.48c-1.43,0-2.85,0-4.28,0a1.14,1.14,0,0,1-1.12-.57A4.82,4.82,0,0,1,20.12,33a13.14,13.14,0,0,1,0-2.2,1.12,1.12,0,0,1,.88-1,10.64,10.64,0,0,1,2.08-.09h2.63c.76,0,1.42.31,1.38,1.17a.17.17,0,0,0,.11.19h.62c.29,0,.2-.17.21-.5a1.66,1.66,0,0,0-.57-1.15c-.82-.7-2.27-.56-3.28-.57a21.11,21.11,0,0,0-3.66.16c-1,.16-1.25,1-1.37,1.91a10.79,10.79,0,0,0,.14,3.84,2.38,2.38,0,0,0,.28.77,1.12,1.12,0,0,0,1,.51c2,0,4.1.15,6.19,0A1.55,1.55,0,0,0,28,34.92a5.14,5.14,0,0,0,.21-2C28.18,32.62,28.09,32.48,27.76,32.48Z"/><path class="cls-2" d="M38.34,35.87a.07.07,0,0,1-.06,0l-3.11-5.66A.31.31,0,0,0,34.9,30h-.58a.31.31,0,0,0-.27.16l-3,5.66a.07.07,0,0,1-.06,0h-.88a.07.07,0,0,1-.06-.11L33.75,29a.07.07,0,0,1,.06,0h1.62a.07.07,0,0,1,.06,0l3.85,6.8a.07.07,0,0,1-.06.11Z"/><path class="cls-3" d="M33.86,29h0m1.56,0,3.8,6.71h-.85l-3.09-5.64a.42.42,0,0,0-.37-.22h-.58a.42.42,0,0,0-.37.22l-3,5.63h-.78L33.84,29h1.57m0-.23H33.82a.19.19,0,0,0-.17.1l-3.76,6.8a.19.19,0,0,0,.17.28h.88a.19.19,0,0,0,.17-.1l3-5.66a.19.19,0,0,1,.17-.1h.58a.19.19,0,0,1,.17.1l3.11,5.66a.19.19,0,0,0,.17.1h1a.19.19,0,0,0,.16-.28l-3.85-6.8a.19.19,0,0,0-.16-.1Z"/><path class="cls-4" d="M13.46,30.9l.7,0a.22.22,0,0,0,.22-.22v-.58a1.31,1.31,0,0,0-1.31-1.3H8.49A2,2,0,0,0,6.67,30a2.57,2.57,0,0,0-.13,1,2,2,0,0,0,.19.85,1.78,1.78,0,0,0,1.16,1,5.94,5.94,0,0,0,1.68.14l2.54,0a1.5,1.5,0,0,1,1.42.54,1.3,1.3,0,0,1,.13,1.1,1.06,1.06,0,0,1-.43.58,1.69,1.69,0,0,1-.89.17H8.65a1.37,1.37,0,0,1-.74-.14.92.92,0,0,1-.38-.58,1.73,1.73,0,0,1,0-.31.43.43,0,0,0-.43-.4H6.79a.2.2,0,0,0-.23.2c0,.2,0,.54,0,.67a.91.91,0,0,0,.26.7c.7.86,1.7.62,2.67.65.74,0,1.49,0,2.23,0a5.32,5.32,0,0,0,2-.18,1.61,1.61,0,0,0,.91-1.51,2.85,2.85,0,0,0,0-.61,2.55,2.55,0,0,0-.3-1.08,1.51,1.51,0,0,0-.67-.54A3.83,3.83,0,0,0,12,32H8.75A1.23,1.23,0,0,1,7.5,30.86a1.18,1.18,0,0,1,1.18-1.24h3.9C13.29,29.63,13.46,30.24,13.46,30.9Z"/><rect class="cls-4" x="16.48" y="28.81" width="0.89" height="7.27" rx="0.27" ry="0.27"/></g></g></svg>