<svg xmlns="http://www.w3.org/2000/svg" viewBox="0 0 57.83 57.84"><defs><style>.cls-1{fill:#b1832d;}.cls-2{fill:#fff;}</style></defs><title>webdev</title><g id="Layer_2" data-name="Layer 2"><g id="Layer_1-2" data-name="Layer 1"><path class="cls-1" d="M57.83,29.91c0,.42-.1.83-.13,1.25A28.57,28.57,0,0,1,53,44.93a28.87,28.87,0,0,1-7.26,7.52,28.52,28.52,0,0,1-6.36,3.45,27,27,0,0,1-8.31,1.86c-1.29.07-2.59.1-3.88,0A26.73,26.73,0,0,1,21.72,57a29,29,0,0,1-5.53-2,28.53,28.53,0,0,1-5.84-3.8A29.15,29.15,0,0,1,4.63,44.7,28.74,28.74,0,0,1,1,36.47a24.68,24.68,0,0,1-.88-5.34C0,29.83,0,28.52,0,27.22A26.88,26.88,0,0,1,.84,21.9,28.94,28.94,0,0,1,12,5.45,28.47,28.47,0,0,1,18.34,2,27.35,27.35,0,0,1,25.56.24c.7-.07,1.4-.12,2.1-.18A1.71,1.71,0,0,0,27.92,0h1.93a1.71,1.71,0,0,0,.26.06l2.07.17A27.27,27.27,0,0,1,39.38,2a28.49,28.49,0,0,1,6.35,3.45A28.87,28.87,0,0,1,53,13a28.62,28.62,0,0,1,4.7,13.74c0,.42.08.83.13,1.25ZM1.48,29A27.44,27.44,0,1,0,28.75,1.53,27.46,27.46,0,0,0,1.48,29Z"/><path class="cls-2" d="M1.48,29A27.44,27.44,0,1,1,29.16,56.43,27.46,27.46,0,0,1,1.48,29ZM28.88,2.67A26.27,26.27,0,1,0,55.15,28.85,26.26,26.26,0,0,0,28.88,2.67Z"/><path class="cls-1" d="M28.88,2.67A26.27,26.27,0,1,1,2.62,29,26.26,26.26,0,0,1,28.88,2.67ZM10.74,34.31h-.1c-.08-.47-.19-.93-.25-1.4-.29-2.17-.57-4.34-.86-6.51S9,22.2,8.7,20.1c0-.29-.16-.39-.44-.39H5.45c-.56,0-.63.09-.55.63q.29,1.91.56,3.81.45,3.17.9,6.35c.27,1.87.54,3.74.8,5.6A2.3,2.3,0,0,0,8.82,38a8.47,8.47,0,0,0,3.47,0c1-.2,1.56-.51,1.73-1.85s.31-2.47.46-3.71.29-2.39.43-3.59.28-2.23.42-3.34a12.6,12.6,0,0,1,.27,1.59c.17,1.55.34,3.09.51,4.64.15,1.39.32,2.77.46,4.16A2.24,2.24,0,0,0,18.26,38,9.3,9.3,0,0,0,22,38a1.86,1.86,0,0,0,1.5-1.63c0-.39.1-.78.15-1.16.19-1.34.38-2.68.57-4q.33-2.34.65-4.68l.55-4,.19-1.33h0q0,1.94,0,3.89,0,6.32,0,12.63c0,.4.05.45.46.45,3,0,5.93,0,8.9,0A5,5,0,0,0,39.76,35a11.78,11.78,0,0,0,.47-1.41,17.62,17.62,0,0,0,.69,1.64,5.19,5.19,0,0,0,4.66,2.92c2.29.07,4.58,0,6.87,0,.38,0,.43,0,.43-.44,0-.8,0-1.61,0-2.41,0-.5-.06-.56-.55-.56H46.25a3,3,0,0,1-.95-.12,2,2,0,0,1-1.29-2c0-2,0-4,0-5.94a8.48,8.48,0,0,1,.09-1.38,2.29,2.29,0,0,1,2.41-2.15c2,0,4,0,5.94,0,.36,0,.43-.07.43-.42q0-1.24,0-2.47c0-.46-.06-.51-.53-.51H48.44c-1.12,0-2.24-.05-3.34.06a5.29,5.29,0,0,0-4.27,2.91,11.15,11.15,0,0,0-.64,2,1.75,1.75,0,0,0-.06-.41,5.94,5.94,0,0,0-.81-2.06,5.23,5.23,0,0,0-4.68-2.51H26.19c-.19,0-.38,0-.57,0l-3.31,0a.36.36,0,0,0-.39.37c-.09.79-.19,1.57-.27,2.36-.17,1.58-.33,3.16-.51,4.73q-.34,3-.71,6.07c0,.33-.12.65-.18,1h-.09a1.14,1.14,0,0,1-.08-.22c-.12-.78-.23-1.57-.34-2.35-.22-1.67-.43-3.35-.64-5-.19-1.43-.37-2.87-.57-4.3A4,4,0,0,0,18.23,21a2.39,2.39,0,0,0-2.09-1.28c-.45,0-.9,0-1.36,0a2.82,2.82,0,0,0-1.81.55,1.76,1.76,0,0,0-.83,1.19c-.17,1.61-.35,3.21-.52,4.82-.25,2.4-.49,4.79-.74,7.19C10.86,33.76,10.79,34,10.74,34.31Z"/><path class="cls-2" d="M10.74,34.31c.05-.28.12-.56.15-.84.25-2.4.49-4.79.74-7.19.17-1.61.35-3.21.52-4.82A1.76,1.76,0,0,1,13,20.27a2.82,2.82,0,0,1,1.81-.55c.45,0,.91,0,1.36,0A2.39,2.39,0,0,1,18.23,21a4,4,0,0,1,.28,1.34c.2,1.43.38,2.87.57,4.3.22,1.67.42,3.35.64,5,.1.79.22,1.57.34,2.35a1.14,1.14,0,0,0,.08.22h.09c.06-.33.14-.65.18-1q.36-3,.71-6.07c.18-1.58.34-3.15.51-4.73.09-.79.19-1.57.27-2.36a.36.36,0,0,1,.39-.37l3.31,0c.19,0,.38,0,.57,0h8.44a5.23,5.23,0,0,1,4.68,2.51,5.94,5.94,0,0,1,.81,2.06,1.75,1.75,0,0,1,.06.41,11.15,11.15,0,0,1,.64-2,5.29,5.29,0,0,1,4.27-2.91c1.1-.11,2.23-.06,3.34-.06h3.92c.47,0,.52.05.53.51q0,1.24,0,2.47c0,.35-.07.42-.43.42-2,0-4,0-5.94,0a2.29,2.29,0,0,0-2.41,2.15A8.48,8.48,0,0,0,44,26.64c0,2,0,4,0,5.94a2,2,0,0,0,1.29,2,3,3,0,0,0,.95.12h6.09c.49,0,.55.06.55.56,0,.8,0,1.61,0,2.41,0,.39,0,.44-.43.44-2.29,0-4.59,0-6.87,0a5.19,5.19,0,0,1-4.66-2.92,17.62,17.62,0,0,1-.69-1.64A11.78,11.78,0,0,1,39.76,35,5,5,0,0,1,35,38.14c-3,0-5.93,0-8.9,0-.4,0-.46,0-.46-.45q0-6.32,0-12.63,0-1.94,0-3.89h0l-.19,1.33-.55,4q-.32,2.34-.65,4.68c-.19,1.34-.38,2.68-.57,4-.05.39-.11.78-.15,1.16A1.86,1.86,0,0,1,22,38a9.3,9.3,0,0,1-3.71,0,2.24,2.24,0,0,1-1.69-2.11c-.14-1.39-.3-2.77-.46-4.16-.17-1.55-.34-3.09-.51-4.64a12.6,12.6,0,0,0-.27-1.59c-.14,1.11-.28,2.23-.42,3.34s-.29,2.39-.43,3.59-.29,2.47-.46,3.71-.7,1.66-1.73,1.85a8.47,8.47,0,0,1-3.47,0,2.3,2.3,0,0,1-1.66-1.84c-.26-1.87-.53-3.74-.8-5.6q-.45-3.17-.9-6.35-.27-1.91-.56-3.81c-.08-.55,0-.64.55-.63h2.8c.28,0,.41.09.44.39.27,2.1.55,4.2.83,6.3s.56,4.34.86,6.51c.06.47.16.94.25,1.4Zm18.7-5.39h0c0,1.81,0,3.62,0,5.42,0,.31.1.4.4.4,1.45,0,2.89-.05,4.34,0a2.65,2.65,0,0,0,2.37-2.35c0-2.28,0-4.56,0-6.84a2.64,2.64,0,0,0-2.22-2.39c-1.49-.06-3,0-4.49-.05-.3,0-.4.11-.39.41C29.44,25.33,29.44,27.13,29.44,28.93Z"/><path class="cls-1" d="M29.44,28.93c0-1.8,0-3.6,0-5.39,0-.3.1-.41.39-.41,1.5,0,3,0,4.49.05a2.64,2.64,0,0,1,2.22,2.39c0,2.28,0,4.56,0,6.84a2.65,2.65,0,0,1-2.37,2.35c-1.44-.06-2.89,0-4.34,0-.3,0-.4-.09-.4-.4,0-1.81,0-3.62,0-5.42Z"/></g></g></svg>